<svg width="300" height="300" viewBox="0 0 300 300" fill="none" xmlns="http://www.w3.org/2000/svg">
<g clip-path="url(#clip0_301_81)">
<path fill-rule="evenodd" clip-rule="evenodd" d="M196.782 197.615C194.883 196.938 193.052 196.156 191.385 195.006C186.577 191.429 183.442 186.046 180.479 180.946C176.307 173.528 173.335 165.624 171.28 157.378C170.397 153.835 170.097 149.727 168.091 146.586C163.544 140.01 150.209 140.862 143.129 142.016C138.387 142.855 137.407 148.159 136.33 152.083C135.433 155.344 134.846 158.642 134.354 161.984C133.181 162.755 131.858 163.38 130.596 163.925C116.849 168.139 114.432 175.951 109.181 188.017C100.312 205.556 76.2469 212.423 72.6118 233.179C70.2697 246.883 76.93 259.775 83.7967 271.167C90.1918 283.61 99.1197 289.582 113.338 286.642C126.673 283.652 139.49 278.65 152.591 274.785C158.936 273.226 165.271 269.17 171.946 270.584C185.7 273.671 199.831 275.123 213.925 274.722C233.715 275.522 233.712 256.537 231.681 241.835C230.258 218.956 218.713 204.264 196.782 197.615Z" fill="white"/>
<path fill-rule="evenodd" clip-rule="evenodd" d="M197.47 230.722C199.124 231.815 200.514 233.472 201.631 235.216C196.97 234.731 192.317 234.172 187.674 233.536C188.282 233.148 188.895 232.768 189.523 232.41C191.812 231.121 194.914 229.032 197.47 230.722ZM120.029 244.493C119.175 244.159 118.844 242.858 118.511 242.111C117.468 239.772 116.515 237.392 115.524 235.03C119.287 233.958 122.946 232.768 126.844 232.197C131.035 231.583 135.288 231.434 139.518 231.572C148.085 231.852 156.573 233.251 164.997 234.752C173.41 236.251 181.823 237.691 190.296 238.821C198.596 239.928 206.923 240.739 215.265 241.45C216.886 241.589 219.589 242.171 220.892 240.896C221.924 239.886 221.958 238.024 220.666 237.203C219.862 236.691 218.697 236.684 217.778 236.566C216.62 236.417 215.458 236.318 214.294 236.241C213.819 236.21 213.345 236.181 212.87 236.152C216.68 234.716 220.658 233.934 224.788 234.152C225.021 235.57 226.074 237.029 226.649 238.198C227.655 240.24 228.439 242.307 228.954 244.527C230.029 249.167 230.076 253.984 229.772 258.717C229.493 262.663 228.894 267.028 225.797 269.823C223.452 271.939 220.144 272.723 217.075 272.969C213.507 273.255 209.885 272.95 206.348 272.472C201.387 271.801 196.403 270.915 191.539 269.726C182.119 267.425 173.09 263.763 164.759 258.798C160.697 256.377 156.821 253.653 152.702 251.324C148.506 248.95 144.041 247.109 139.352 245.965C134.105 244.686 128.62 244.14 123.227 244.456C122.291 244.51 120.939 244.849 120.029 244.493ZM113.948 242.118C114.5 243.906 114.922 245.948 116.098 247.451C117.264 248.94 119.023 249.465 120.845 249.598C123.041 249.757 125.264 249.655 127.465 249.737C131.981 249.904 136.434 250.637 140.75 251.982C144.773 253.235 148.507 255.19 152.104 257.359C155.43 259.364 158.658 261.517 161.986 263.517C161.1 263.922 160.225 264.361 159.344 264.743C157.498 265.545 155.64 266.318 153.774 267.072C150.094 268.559 146.399 270.009 142.666 271.357C135.138 274.074 127.487 276.447 119.744 278.47C116.051 279.434 112.305 280.561 108.468 280.721C105.066 280.863 101.915 279.902 99.1708 277.88C93.4796 273.686 88.9517 267.633 85.2914 261.662C83.1168 258.115 81.2191 254.388 79.6494 250.534C78.8555 248.585 78.1355 246.606 77.4875 244.604C77.1835 243.664 76.8952 242.719 76.6222 241.769C76.5022 241.352 76.3871 240.933 76.2732 240.514C82.0928 238.739 87.9815 237.136 94.0084 236.247C97.2263 235.772 100.487 235.531 103.74 235.566C105.355 235.583 106.969 235.671 108.575 235.837C109.439 235.927 110.3 236.042 111.158 236.185C111.512 236.244 111.876 236.331 112.241 236.395C112.799 238.306 113.362 240.215 113.948 242.118ZM234.247 234.52C234.561 233.886 234.693 233.262 234.805 232.572C234.891 232.045 235.118 231.304 234.919 230.62C234.696 229.854 234.088 229.169 233.652 228.516C233.17 227.794 232.689 227.072 232.208 226.349C231.246 224.904 230.287 223.457 229.329 222.01C225.417 216.099 221.532 210.17 217.64 204.245C214.187 198.988 210.792 193.683 207.233 188.496C204.19 184.06 200.873 179.698 196.708 176.248C191.442 171.887 185.171 169.832 178.621 168.229C177.906 167.487 176.95 167.081 175.929 167.163C174.486 165.528 173.339 164.385 172.819 162.305C172.57 161.308 172.648 158.509 171.677 157.919C170.524 157.219 169.922 158.146 169.604 159.19C168.54 162.686 169.761 167.386 172.571 170.887C171.387 174.977 169.817 180.791 167.017 184.067C164.018 187.576 159.87 188.668 155.396 188.74C146.862 188.878 138.338 185.708 131.829 180.214C129.85 178.544 128.013 176.679 126.35 174.696C125.103 173.208 123.629 170.911 122.653 169.175C122.653 168.499 121.854 167.792 129.989 167.245C138.123 166.699 138.74 155.566 138.921 154.05C139.068 152.82 139.693 150.91 138.825 149.907C138.457 149.481 137.702 149.412 137.235 149.702C136.355 150.248 136.066 151.645 135.789 152.594C135.402 153.923 134.135 162.17 131.734 163.125C130.61 163.572 129.321 163.58 128.132 163.663C126.664 163.765 125.193 163.84 123.73 164.011C123.191 164.074 122.603 164.248 122.071 164.253C121.724 164.257 121.367 164.089 121.033 163.971C119.903 163.572 118.775 163.871 117.611 164.027C107.324 165.409 96.7318 168.563 87.9572 174.238C80.2233 179.239 74.7746 186.433 71.1793 194.843C67.5109 203.426 65.4082 212.707 63.6461 221.844C63.0558 224.905 62.5403 227.981 62.0974 231.067C61.6694 234.049 61.134 237.098 61.0058 240.11C60.9551 241.302 61.2401 242.409 61.6786 243.498C62.1724 244.723 63.3397 245.206 64.4592 245.778C66.9169 247.035 69.5094 248.009 72.1805 248.699C73.8123 251.666 75.1856 254.749 76.2892 257.949C75.8797 258.76 75.8712 259.971 75.7925 260.759C75.5972 262.721 75.5136 264.694 75.4961 266.665C75.4609 270.617 75.6986 274.564 75.885 278.509C76.0739 282.511 76.7021 298.298 76.8044 300.226C76.884 301.724 76.2773 302.364 77.0666 303.693C82.6253 303.693 81.5136 303.693 83.5783 303.693C121.219 303.693 178.394 303.852 205.711 303.852C208.094 303.852 209.047 303.852 210.158 303.852C212.197 303.852 212.842 304.365 213.022 303.479C213.261 302.297 212.875 301.227 212.197 300.271C211.486 299.265 211.356 297.637 211.091 296.441C210.466 293.614 210.155 281.199 209.863 279.824C209.772 279.395 209.684 278.942 209.578 278.488C214.362 278.941 219.347 278.941 223.899 277.342C226.479 276.435 228.887 275.01 230.74 272.976C232.983 270.513 234.231 267.412 234.873 264.176C235.701 260.003 235.877 255.68 235.714 251.437C235.488 246.423 234.656 241.339 232.591 236.735C233.271 236.104 233.84 235.343 234.247 234.52Z" fill="black"/>
<path fill-rule="evenodd" clip-rule="evenodd" d="M191.226 113.457C190.755 109.322 191.364 100.679 191.405 100.154C191.663 96.8346 190.107 83.7263 187.166 84.9341C182.231 81.0296 175.659 80.1674 169.513 79.7555C156.748 78.8999 143.167 80.8641 133.31 89.4509C128.435 93.9103 123.69 100.396 124.071 107.149C119.642 113.551 113.398 122.331 118.917 129.815C120.792 132.206 123.774 133.096 126.13 134.907C130.87 138.728 133.843 144.212 138.628 148.011C151.305 159.396 172.829 161.775 185.284 148.824C194.915 139.445 193.357 125.414 191.663 113.457C190.524 105.418 192.144 121.524 191.226 113.457Z" fill="white"/>
<path fill-rule="evenodd" clip-rule="evenodd" d="M152.46 62.2204C155.874 61.5318 159.38 61.1034 162.866 61.2323L163.135 61.2428C165.758 61.3476 169.08 61.5794 171.369 63.104C171.5 62.972 171.712 62.9042 171.904 62.9958C174.624 64.2933 177.615 65.2313 180.478 66.1634C183.328 67.091 186.285 67.7033 189.272 67.9501C190.396 68.043 191.358 69.2561 190.647 70.3441C190.477 70.6033 190.312 70.8652 190.148 71.1278C190.423 71.0991 190.698 71.0696 190.972 71.0419C191.876 70.9509 192.779 71.9152 192.726 72.7949C192.692 73.3482 192.632 73.8949 192.544 74.4351C192.888 74.4279 193.231 74.4794 193.561 74.6191C195.236 75.3259 195.119 77.3194 194.994 78.8361C194.82 80.9408 194.033 83.1701 192.57 84.7454C193.662 85.8789 194.435 87.2325 194.896 88.8401C195.23 90.0141 195.417 91.2645 195.325 92.4865L195.295 92.8524C195.182 94.1785 194.956 95.6467 194.002 96.6007C193.512 97.0925 192.908 97.2718 192.333 97.215C192.681 100.271 192.904 103.345 193.114 106.407L193.212 107.871C193.68 114.95 194.032 122.074 193.94 129.164C193.855 135.79 192.545 142.222 188.479 147.602C184.776 152.501 179.46 156.112 173.445 157.485C170.204 158.226 166.895 158.278 163.614 157.806C162.024 157.577 160.423 157.225 158.914 156.669C157.243 156.053 156.043 155.146 154.918 153.786C154.387 153.141 154.643 151.768 155.701 151.897C157.303 152.091 158.764 152.325 160.3 152.798L160.519 152.868C162.048 153.357 163.632 153.723 165.23 153.878C168.505 154.195 171.829 153.876 174.965 152.883C180.072 151.265 184.47 147.661 187.289 143.131C190.636 137.762 191.014 131.667 190.966 125.494C190.914 118.72 190.693 111.941 190.334 105.174L190.272 104.046C190.082 100.564 189.898 97.0794 189.737 93.5948C189.686 92.5018 189.61 91.4 189.472 90.3092C188.21 89.5703 187.079 88.5516 186.342 87.2946C184.862 87.9067 183.305 88.3483 181.872 88.7002C178.553 89.5161 175.108 89.7141 171.73 89.2032C170.819 89.5795 169.889 89.9102 168.946 90.1948C168.691 90.3079 168.436 90.4189 168.181 90.5278C165.906 91.5006 163.599 92.3247 161.198 92.9281L160.608 93.0751C159.344 93.3865 157.971 93.6931 156.627 93.7894C156.406 93.8746 156.167 93.9468 155.907 94.0102C154.682 94.3075 153.411 94.4015 152.156 94.2966C150.933 94.1938 150.05 92.9587 150.723 91.8023C151.216 90.9584 151.712 90.1168 152.213 89.2774C150.47 90.0031 148.67 90.6065 146.855 91.118C145.022 91.6339 143.163 92.069 141.301 92.469C140.306 92.6811 139.307 92.8691 138.314 93.0811C137.603 93.2319 136.512 93.3106 135.932 93.7785C135.292 94.2922 135.11 95.4901 134.867 96.229C134.548 97.1887 134.248 98.1528 133.975 99.1278C133.43 101.073 132.984 103.047 132.639 105.041C132.293 107.037 132.061 109.052 131.932 111.075C131.803 113.095 131.86 115.128 131.652 117.139C131.541 118.206 130.395 118.754 129.548 118.009C129.449 117.921 129.349 117.833 129.25 117.744L129.102 117.609C128.378 116.953 127.676 116.258 127.097 115.475C126.992 115.331 126.891 115.18 126.797 115.027C126.782 115.027 126.769 115.023 126.753 115.012L126.593 114.891C124.824 113.575 121.869 111.859 120.144 114.045C119.594 114.742 119.313 115.629 119.079 116.484L118.67 118.016C118.404 119.015 118.155 120.02 118.009 121.043C117.679 123.334 117.845 125.975 119.422 127.811C120.052 128.546 120.92 129.07 121.889 129.208C122.429 129.282 122.963 129.191 123.499 129.123C124.043 129.055 124.568 129.164 125.113 129.112C125.979 129.027 126.357 130.063 126.034 130.714C125.859 131.064 125.653 131.366 125.419 131.621C125.607 131.783 125.787 131.958 125.959 132.142C126.471 132.306 126.93 132.658 127.274 133.123C127.552 133.499 127.696 133.908 127.72 134.339C127.75 134.446 127.777 134.555 127.801 134.667L128.27 135.428C128.373 135.595 128.476 135.76 128.579 135.921C129.773 137.801 131.099 139.393 132.746 140.893C134.331 142.335 136.052 143.627 137.542 145.175L137.718 145.359C139.106 146.821 140.57 148.592 140.027 150.719C139.887 151.265 139.123 151.659 138.625 151.289C137.022 150.1 136.214 148.216 134.854 146.773C133.454 145.286 131.904 143.951 130.5 142.469C129.172 141.07 128.124 139.485 127.335 137.74C127.02 138.088 126.561 138.335 125.924 138.431C124.831 138.595 123.811 137.954 123.335 137.008C123.028 137.143 122.716 137.266 122.401 137.362C120.743 137.869 119.7 136.026 120.325 134.664C120.66 133.934 121.078 133.3 121.596 132.767C119.975 132.544 118.326 131.707 117.261 130.662C114.589 128.036 114.221 124.09 114.823 120.582C115.142 118.721 115.693 116.839 116.408 115.093C116.533 114.789 116.666 114.483 116.813 114.181C116.732 114.179 116.649 114.144 116.596 114.076C116.113 113.416 115.525 112.876 115.166 112.137C114.836 111.459 114.468 110.773 114.208 110.067C113.672 108.622 113.41 106.991 113.235 105.463C112.874 102.335 113.014 99.2261 113.493 96.1175C114.309 90.8229 116.279 85.756 119.181 81.31C119.023 81.227 118.872 81.1268 118.731 81.0083L118.661 80.9476L118.548 80.8453C117.719 80.0961 117.791 78.692 118.548 77.9332L118.787 77.6938C119.089 77.3932 119.35 77.1551 119.839 76.8279C119.911 76.7796 119.985 76.7342 120.059 76.6917C119.804 76.2191 119.715 75.6665 119.893 75.0568C120.514 72.9328 123.572 73.008 125.51 73.9342C127.654 72.0217 130.031 70.3613 132.608 69.0169C138.745 65.8165 145.684 63.5845 152.46 62.2204ZM120.737 118.162C121.883 117.788 123.405 118.573 124.435 119.045C125.741 119.644 126.852 120.529 127.928 121.465C128.464 121.933 128.56 122.698 128.426 123.352C128.413 123.417 128.4 123.485 128.385 123.553C128.242 124.25 127.464 124.799 126.775 124.779C125.334 124.74 124.647 123.496 123.831 122.442C123.735 122.613 123.615 122.77 123.466 122.888L123.365 122.967C123.027 123.224 122.653 123.43 122.206 123.411C121.889 123.395 121.585 123.314 121.305 123.168C120.605 122.798 120.297 121.893 120.487 121.157C120.605 120.693 120.876 120.33 121.231 120.079L121.099 119.989C120.816 119.792 120.558 119.585 120.357 119.279L120.312 119.207H120.33C120.111 118.831 120.253 118.319 120.737 118.162Z" fill="black"/>
<path fill-rule="evenodd" clip-rule="evenodd" d="M174.097 140.38C172.486 140.846 170.756 140.888 169.114 140.406C167.624 139.969 166.095 139.008 164.999 137.735C164.025 136.605 163.394 135.231 163.419 133.765C163.422 133.598 163.481 133.458 163.574 133.349C163.673 133.233 163.811 133.152 163.96 133.118C164.112 133.082 164.274 133.094 164.411 133.157C164.536 133.213 164.642 133.309 164.709 133.449C164.877 133.671 165.045 133.889 165.214 134.1C166.568 135.772 167.88 137.022 169.917 137.47C171.023 137.713 172.126 137.605 173.139 137.234C174.223 136.837 175.203 136.139 175.971 135.245C176.318 134.841 176.728 134.676 177.129 134.674C177.583 134.67 178.032 134.881 178.37 135.218C178.702 135.55 178.925 136 178.945 136.471C178.963 136.884 178.828 137.316 178.469 137.701C177.287 138.97 175.754 139.9 174.097 140.38ZM174.047 119.439C175.699 120.442 178.215 122.782 176.438 125.27C174.347 127.463 171.336 124.948 169.852 123.811C168.476 122.929 166.93 125.196 168.207 126.226C178.929 134.16 183.28 119.701 174.882 118.259C173.958 118.1 173.614 119.129 174.047 119.439ZM158.598 115.024C158.067 114.684 157.442 114.568 156.75 114.883C156.21 115.128 155.261 115.948 154.601 117.025C154.149 117.762 153.829 118.627 153.896 119.527C153.911 119.736 153.834 119.891 153.712 120.005C153.616 120.095 153.477 120.161 153.313 120.181C153.174 120.199 153.019 120.183 152.893 120.144C152.653 120.069 152.526 119.913 152.478 119.786C152.016 118.559 152.215 117.19 152.733 115.955C153.432 114.288 154.701 112.892 155.533 112.442C156.956 111.671 158.635 111.636 160.061 112.421C161.274 113.089 162.032 114.168 162.787 115.267C162.947 115.501 163.107 115.733 163.271 115.961C163.601 116.418 163.634 116.871 163.506 117.259C163.365 117.689 163.004 118.053 162.553 118.243C162.136 118.418 161.652 118.443 161.224 118.263C160.862 118.11 160.53 117.813 160.32 117.309C159.967 116.459 159.377 115.522 158.598 115.024ZM185.557 116.913C185.193 117.103 184.909 117.16 184.506 117.039C184.283 116.972 184.062 116.844 183.89 116.671C183.719 116.5 183.595 116.288 183.547 116.052C183.429 115.47 183.111 114.925 182.657 114.57C182.269 114.266 181.779 114.106 181.236 114.196C180.649 114.294 180.091 114.67 179.706 115.113C179.578 115.261 179.477 115.43 179.376 115.597C179.186 115.91 179.002 116.2 178.74 116.43C178.641 116.517 178.492 116.578 178.347 116.578C178.289 116.578 178.229 116.568 178.172 116.551C177.589 115.965 177.476 115.521 177.495 115.081C177.515 114.619 177.697 114.151 177.992 113.715C178.682 112.692 179.993 111.852 180.878 111.662C182.09 111.402 183.293 111.714 184.258 112.391C185.251 113.087 185.987 114.168 186.216 115.386C186.271 115.679 186.248 115.995 186.136 116.27C186.027 116.538 185.836 116.768 185.557 116.913ZM161.27 104.111C160.543 104.82 159.682 104.929 158.811 105.027C158.328 105.082 157.941 105.126 157.561 105.211C156.517 105.447 155.484 105.802 154.542 106.313C153.557 106.848 152.484 107.492 151.712 108.318C151.528 108.515 151.355 108.721 151.182 108.927C151.024 109.116 150.872 109.297 150.711 109.472C150.527 109.673 150.352 109.883 150.178 110.093C150.071 110.271 150.049 110.314 150.028 110.36C149.995 110.428 149.957 110.504 149.914 110.586C149.854 110.698 149.785 110.821 149.712 110.932C149.591 111.135 149.526 111.191 149.47 111.216C149.377 111.258 149.288 111.278 149.203 111.267C149.122 111.257 149.047 111.218 148.972 111.155C148.598 110.84 148.488 110.322 148.5 109.773C148.517 108.94 148.824 108.017 149.108 107.449C149.767 106.131 150.681 104.761 151.781 103.777C153.035 102.654 154.408 101.804 155.984 101.218C156.964 100.854 158.098 100.52 159.165 100.562C159.934 100.592 160.667 100.821 161.273 101.391C161.645 101.741 161.823 102.238 161.823 102.736C161.823 103.243 161.638 103.753 161.27 104.111ZM187.036 110.596C186.99 110.672 186.926 110.724 186.854 110.756C186.78 110.789 186.696 110.798 186.616 110.785C186.537 110.771 186.461 110.735 186.401 110.68C186.343 110.627 186.3 110.557 186.28 110.471C185.797 108.352 184.86 106.775 182.859 105.758C181.874 105.258 180.743 104.94 179.671 104.686C179.36 104.613 179.031 104.565 178.699 104.517C177.661 104.365 176.615 104.191 175.938 103.352C175.53 102.847 175.359 102.201 175.456 101.61C175.547 101.053 175.872 100.543 176.464 100.237C177.936 99.4762 179.766 100.223 181.253 100.859C181.363 100.906 181.472 100.952 181.578 100.997C183.032 101.611 184.358 102.42 185.448 103.579C186.313 104.497 187.115 105.856 187.437 107.253C187.706 108.415 187.643 109.602 187.036 110.596Z" fill="black"/>
<path fill-rule="evenodd" clip-rule="evenodd" d="M154.963 141.48C156.734 137.334 160.599 134.287 165.048 133.172C168.316 132.356 171.745 132.382 175.076 132.706C176.821 132.875 178.693 133.013 180.337 133.661C181.742 134.214 182.886 135.26 183.747 136.488C184.771 137.943 185.468 139.608 185.957 141.315C186.027 141.558 186.092 141.803 186.153 142.048C185.94 143.336 185.489 144.432 184.295 145.242C183.131 146.033 181.741 146.356 180.356 146.471C180.22 146.406 180.089 146.339 179.968 146.27C177.81 145.035 176.29 142.116 173.566 142.511C171.134 142.864 169.534 145.922 168.088 147.715C163.447 148.256 158.809 146.861 155.032 144.209C154.84 143.301 154.829 142.385 154.963 141.48ZM189.308 138.335C188.936 137.293 188.469 136.285 187.914 135.335C186.082 132.192 183.269 129.688 179.929 128.257C172.029 124.876 161.807 127.26 155.427 132.805C153.248 134.7 151.044 137.486 150.377 140.482C150.179 140.522 149.991 140.625 149.836 140.771C145.227 137.87 140.48 135.079 136.765 131.058C134.068 128.137 132.192 124.679 131.043 120.88C130.949 120.567 130.444 120.613 130.46 120.959C130.464 121.04 130.468 121.121 130.473 121.202C130.425 121.053 130.197 121.13 130.18 121.274C129.562 125.889 128.789 130.783 129.501 135.422C129.927 138.19 131.185 140.217 132.866 142.405C134.668 144.751 136.708 146.933 138.794 149.025C140.118 150.354 141.501 151.885 143.121 152.859C145.006 153.991 147.144 154.851 149.156 155.724C151.203 156.615 153.28 157.437 155.396 158.151C159.627 159.582 164 160.571 168.449 161.004C172.011 161.35 176.083 161.727 179.497 160.387C182.113 159.361 184.225 157.505 185.901 155.273C187.724 152.842 189.166 150.072 189.963 147.152C190.791 144.118 189.482 138.824 189.308 138.335Z" fill="black"/>
</g>
<defs>
<clipPath id="clip0_301_81">
<rect width="300" height="300" rx="150" fill="white"/>
</clipPath>
</defs>
</svg>
