<svg width="36" height="36" viewBox="0 0 36 36" fill="none" xmlns="http://www.w3.org/2000/svg">
<g clip-path="url(#clip0_202_30)">
<rect width="36" height="36" fill="white"/>
<rect width="1000" height="999.535" fill="#6667AB"/>
<path fill-rule="evenodd" clip-rule="evenodd" d="M24.206 23.9427C23.9907 23.866 23.7833 23.7774 23.5942 23.6471C23.0493 23.2417 22.694 22.6316 22.3583 22.0536C21.8854 21.2128 21.5485 20.317 21.3157 19.3825C21.2156 18.9809 21.1816 18.5154 20.9543 18.1594C20.4389 17.414 18.9276 17.5106 18.1251 17.6415C17.5877 17.7365 17.4767 18.3376 17.3546 18.7824C17.253 19.152 17.1865 19.5258 17.1306 19.9045C16.9978 19.9918 16.8478 20.0627 16.7048 20.1245C15.1467 20.6021 14.8728 21.4874 14.2777 22.855C13.2726 24.8427 10.5451 25.621 10.1331 27.9735C9.86764 29.5265 10.6225 30.9876 11.4007 32.2788C12.1255 33.689 13.1374 34.3659 14.7488 34.0327C16.2602 33.6938 17.7127 33.1269 19.1975 32.6889C19.9167 32.5121 20.6347 32.0525 21.3912 32.2127C22.9499 32.5626 24.5515 32.7271 26.1489 32.6817C28.3918 32.7724 28.3914 30.6207 28.1612 28.9545C28 26.3614 26.6915 24.6964 24.206 23.9427V23.9427Z" fill="white"/>
<path fill-rule="evenodd" clip-rule="evenodd" d="M24.284 27.695C24.4714 27.8188 24.6291 28.0067 24.7556 28.2043C24.2273 28.1494 23.7 28.0861 23.1738 28.014C23.2427 27.97 23.3122 27.9269 23.3833 27.8863C23.6428 27.7402 23.9943 27.5035 24.284 27.695ZM15.5072 29.2558C15.4104 29.2179 15.3729 29.0704 15.3352 28.9858C15.2169 28.7207 15.109 28.451 14.9967 28.1832C15.4231 28.0617 15.8378 27.9269 16.2796 27.8622C16.7546 27.7926 17.2366 27.7757 17.716 27.7914C18.687 27.823 19.649 27.9816 20.6037 28.1517C21.5572 28.3216 22.5107 28.4848 23.4709 28.6129C24.4117 28.7384 25.3554 28.8303 26.3009 28.9109C26.4846 28.9266 26.7909 28.9926 26.9386 28.8481C27.0556 28.7337 27.0594 28.5226 26.913 28.4296C26.8218 28.3716 26.6897 28.3707 26.5856 28.3574C26.4544 28.3405 26.3227 28.3293 26.1907 28.3205C26.137 28.317 26.0832 28.3137 26.0294 28.3104C26.4612 28.1477 26.9121 28.059 27.3801 28.0837C27.4066 28.2444 27.5258 28.4098 27.5911 28.5424C27.7051 28.7738 27.7939 29.008 27.8522 29.2596C27.9741 29.7855 27.9794 30.3314 27.945 30.8678C27.9134 31.3151 27.8454 31.8098 27.4944 32.1265C27.2287 32.3664 26.8538 32.4552 26.5059 32.4831C26.1016 32.5156 25.6911 32.4809 25.2902 32.4267C24.7279 32.3507 24.163 32.2503 23.6118 32.1156C22.5442 31.8547 21.5209 31.4397 20.5768 30.877C20.1163 30.6026 19.677 30.2939 19.2103 30.0299C18.7347 29.7609 18.2286 29.5522 17.6972 29.4226C17.1025 29.2776 16.4809 29.2157 15.8697 29.2515C15.7636 29.2577 15.6104 29.2962 15.5072 29.2558ZM14.8181 28.9865C14.8805 29.1892 14.9284 29.4207 15.0617 29.591C15.1939 29.7597 15.3932 29.8193 15.5997 29.8343C15.8486 29.8524 16.1005 29.8408 16.35 29.8501C16.8617 29.8691 17.3665 29.9521 17.8557 30.1045C18.3116 30.2466 18.7348 30.4681 19.1424 30.7139C19.5194 30.9412 19.8853 31.1852 20.2624 31.4118C20.162 31.4578 20.0628 31.5075 19.963 31.5509C19.7538 31.6417 19.5432 31.7293 19.3317 31.8148C18.9147 31.9832 18.4959 32.1476 18.0728 32.3004C17.2197 32.6083 16.3525 32.8773 15.4749 33.1065C15.0563 33.2158 14.6318 33.3435 14.197 33.3617C13.8114 33.3778 13.4542 33.2688 13.1432 33.0397C12.4982 32.5644 11.9851 31.8783 11.5702 31.2016C11.3238 30.7996 11.1087 30.3772 10.9308 29.9404C10.8408 29.7195 10.7592 29.4953 10.6858 29.2684C10.6513 29.1618 10.6186 29.0547 10.5877 28.9471C10.5741 28.8997 10.561 28.8523 10.5481 28.8048C11.2077 28.6036 11.8751 28.422 12.5582 28.3212C12.9229 28.2673 13.2924 28.2401 13.6611 28.244C13.8441 28.246 14.027 28.2559 14.2091 28.2747C14.307 28.2849 14.4046 28.298 14.5018 28.3142C14.5419 28.3209 14.5832 28.3307 14.6246 28.338C14.6878 28.5545 14.7516 28.7709 14.8181 28.9865ZM28.4522 28.1255C28.4877 28.0536 28.5027 27.9829 28.5154 27.9046C28.5251 27.845 28.5509 27.7609 28.5283 27.6834C28.5031 27.5967 28.4342 27.519 28.3847 27.445C28.3301 27.3632 28.2756 27.2813 28.2211 27.1994C28.1121 27.0356 28.0034 26.8717 27.8948 26.7076C27.4514 26.0377 27.0111 25.3658 26.57 24.6943C26.1786 24.0984 25.7938 23.4972 25.3905 22.9093C25.0456 22.4066 24.6697 21.9122 24.1977 21.5212C23.6008 21.0269 22.8901 20.794 22.1478 20.6123C22.0667 20.5282 21.9584 20.4823 21.8426 20.4916C21.6791 20.3062 21.5491 20.1767 21.4902 19.9409C21.462 19.828 21.4708 19.5107 21.3608 19.4439C21.2301 19.3645 21.1618 19.4695 21.1258 19.588C21.0052 19.9841 21.1436 20.5168 21.4621 20.9136C21.3279 21.3772 21.15 22.036 20.8326 22.4074C20.4927 22.8051 20.0227 22.9289 19.5155 22.937C18.5484 22.9526 17.5822 22.5933 16.8445 21.9706C16.6203 21.7814 16.4121 21.57 16.2236 21.3452C16.0823 21.1766 15.9152 20.9163 15.8046 20.7196C15.8046 20.6429 15.7141 20.5628 16.636 20.5008C17.5579 20.4389 17.6278 19.1771 17.6483 19.0054C17.665 18.866 17.7358 18.6495 17.6375 18.5358C17.5958 18.4875 17.5102 18.4798 17.4573 18.5126C17.3575 18.5745 17.3248 18.7328 17.2934 18.8403C17.2495 18.9909 17.1059 19.9256 16.8338 20.0339C16.7064 20.0845 16.5603 20.0855 16.4256 20.0948C16.2592 20.1064 16.0924 20.1149 15.9267 20.1343C15.8656 20.1414 15.7989 20.1612 15.7386 20.1618C15.6994 20.1621 15.6589 20.1431 15.621 20.1297C15.493 20.0845 15.3651 20.1184 15.2332 20.1361C14.0673 20.2927 12.8668 20.6502 11.8723 21.2933C10.9958 21.8602 10.3783 22.6755 9.97081 23.6286C9.55505 24.6014 9.31674 25.6533 9.11703 26.6888C9.05013 27.0358 8.99171 27.3844 8.94151 27.7341C8.893 28.0721 8.83233 28.4176 8.8178 28.759C8.81205 28.8941 8.84435 29.0196 8.89405 29.1429C8.95002 29.2818 9.08231 29.3366 9.20919 29.4014C9.48773 29.5438 9.78156 29.6543 10.0843 29.7325C10.2692 30.0688 10.4249 30.4182 10.5499 30.7808C10.5035 30.8727 10.5026 31.01 10.4936 31.0993C10.4715 31.3217 10.462 31.5453 10.4601 31.7687C10.4561 32.2165 10.483 32.6639 10.5041 33.111C10.5256 33.5645 10.5967 35.3538 10.6083 35.5723C10.6174 35.742 10.5486 35.8146 10.6381 35.9653C11.2681 35.9653 11.1421 35.9653 11.3761 35.9653C15.6421 35.9653 22.1221 35.9833 25.2181 35.9833C25.4881 35.9833 25.5961 35.9833 25.7221 35.9833C25.9532 35.9833 26.0263 36.0414 26.0466 35.941C26.0737 35.807 26.0299 35.6858 25.9532 35.5774C25.8725 35.4634 25.8578 35.2788 25.8278 35.1433C25.7569 34.8229 25.7217 33.4159 25.6886 33.26C25.6783 33.2114 25.6683 33.16 25.6563 33.1086C26.1985 33.16 26.7635 33.16 27.2793 32.9787C27.5718 32.8759 27.8446 32.7145 28.0546 32.4839C28.3089 32.2048 28.4504 31.8533 28.5231 31.4865C28.617 31.0135 28.6369 30.5236 28.6185 30.0428C28.5928 29.4745 28.4986 28.8983 28.2645 28.3765C28.3415 28.305 28.4061 28.2188 28.4522 28.1255Z" fill="black"/>
<path fill-rule="evenodd" clip-rule="evenodd" d="M23.5763 14.4048C23.5229 13.9361 23.592 12.9566 23.5966 12.8971C23.6259 12.5209 23.4495 11.0352 23.1161 11.1721C22.5569 10.7296 21.812 10.6319 21.1155 10.5852C19.6687 10.4882 18.1296 10.7108 17.0124 11.684C16.4599 12.1894 15.9221 12.9245 15.9653 13.6899C15.4633 14.4154 14.7557 15.4106 15.3811 16.2587C15.5937 16.5297 15.9316 16.6306 16.1986 16.8358C16.7358 17.2689 17.0728 17.8904 17.6151 18.3209C19.0518 19.6113 21.4913 19.8809 22.9028 18.4132C23.9944 17.3502 23.8179 15.7599 23.6259 14.4048C23.4968 13.4937 23.6804 15.319 23.5763 14.4048Z" fill="white"/>
<path fill-rule="evenodd" clip-rule="evenodd" d="M19.1828 8.59785C19.5697 8.51981 19.967 8.47125 20.3622 8.48587L20.3926 8.48705C20.6899 8.49893 21.0664 8.5252 21.3258 8.698C21.3407 8.68303 21.3647 8.67535 21.3865 8.68573C21.6947 8.83278 22.0337 8.93909 22.3582 9.04474C22.6812 9.14986 23.0163 9.21926 23.3549 9.24723C23.4823 9.25776 23.5913 9.39524 23.5107 9.51855C23.4915 9.54793 23.4728 9.57762 23.4542 9.60737C23.4853 9.60413 23.5164 9.60078 23.5476 9.59763C23.65 9.58733 23.7524 9.69661 23.7463 9.79631C23.7425 9.85902 23.7357 9.92098 23.7257 9.98221C23.7647 9.98139 23.8035 9.98723 23.841 10.0031C24.0308 10.0832 24.0176 10.3091 24.0034 10.481C23.9837 10.7195 23.8944 10.9722 23.7287 11.1507C23.8524 11.2792 23.94 11.4326 23.9923 11.6148C24.0302 11.7479 24.0513 11.8896 24.0409 12.0281L24.0375 12.0695C24.0247 12.2198 23.9991 12.3862 23.8909 12.4944C23.8354 12.5501 23.767 12.5704 23.7017 12.564C23.7412 12.9103 23.7665 13.2587 23.7903 13.6058L23.8014 13.7717C23.8545 14.5739 23.8944 15.3814 23.884 16.185C23.8743 16.9359 23.7258 17.6648 23.265 18.2746C22.8453 18.8298 22.2428 19.2391 21.5611 19.3947C21.1938 19.4787 20.8187 19.4846 20.4469 19.4311C20.2667 19.4051 20.0853 19.3652 19.9142 19.3023C19.7249 19.2324 19.5888 19.1296 19.4614 18.9755C19.4011 18.9024 19.4301 18.7468 19.5501 18.7614C19.7316 18.7834 19.8973 18.8099 20.0713 18.8636L20.0962 18.8714C20.2695 18.9269 20.4489 18.9683 20.6301 18.9859C21.0012 19.0218 21.3779 18.9856 21.7334 18.8731C22.3122 18.6898 22.8107 18.2812 23.1302 17.7679C23.5094 17.1594 23.5523 16.4686 23.5468 15.769C23.5409 15.0012 23.516 14.233 23.4752 13.466L23.4682 13.3382C23.4467 12.9435 23.4259 12.5486 23.4075 12.1537C23.4018 12.0298 23.3932 11.9049 23.3775 11.7813C23.2345 11.6976 23.1064 11.5821 23.0228 11.4396C22.855 11.509 22.6785 11.5591 22.5162 11.599C22.14 11.6914 21.7495 11.7139 21.3667 11.656C21.2634 11.6986 21.1581 11.7361 21.0512 11.7683C21.0223 11.7812 20.9934 11.7937 20.9645 11.8061C20.7067 11.9163 20.4452 12.0097 20.173 12.0781L20.1062 12.0948C19.963 12.1301 19.8074 12.1648 19.655 12.1757C19.6299 12.1854 19.6029 12.1936 19.5734 12.2008C19.4346 12.2345 19.2906 12.2451 19.1483 12.2332C19.0097 12.2216 18.9096 12.0816 18.9859 11.9505C19.0417 11.8549 19.098 11.7595 19.1548 11.6644C18.9572 11.7466 18.7532 11.815 18.5475 11.873C18.3398 11.9314 18.1291 11.9807 17.9181 12.0261C17.8053 12.0501 17.6921 12.0714 17.5795 12.0955C17.499 12.1126 17.3753 12.1215 17.3096 12.1745C17.237 12.2327 17.2164 12.3685 17.1889 12.4522C17.1527 12.561 17.1187 12.6703 17.0877 12.7808C17.026 13.0013 16.9755 13.225 16.9363 13.4509C16.8971 13.6772 16.8708 13.9056 16.8562 14.1348C16.8416 14.3637 16.848 14.5941 16.8245 14.822C16.8118 14.9429 16.682 15.0051 16.5861 14.9207C16.5748 14.9107 16.5635 14.9007 16.5522 14.8906L16.5355 14.8753C16.4534 14.801 16.3738 14.7222 16.3082 14.6335C16.2963 14.6171 16.2849 14.6001 16.2742 14.5827C16.2725 14.5827 16.271 14.5822 16.2693 14.581L16.2511 14.5673C16.0506 14.4181 15.7157 14.2237 15.5202 14.4715C15.4579 14.5504 15.426 14.6509 15.3995 14.7479L15.3531 14.9214C15.3231 15.0347 15.2948 15.1486 15.2782 15.2645C15.2408 15.5242 15.2597 15.8235 15.4384 16.0316C15.5098 16.1148 15.6082 16.1743 15.718 16.1899C15.7792 16.1983 15.8397 16.1879 15.9004 16.1803C15.9622 16.1726 16.0216 16.185 16.0834 16.179C16.1815 16.1694 16.2244 16.2868 16.1877 16.3606C16.1679 16.4003 16.1446 16.4345 16.1181 16.4634C16.1394 16.4818 16.1597 16.5016 16.1793 16.5224C16.2373 16.541 16.2893 16.5809 16.3283 16.6337C16.3597 16.6763 16.3761 16.7226 16.3788 16.7714C16.3823 16.7835 16.3852 16.7959 16.388 16.8086L16.4412 16.8948C16.4529 16.9138 16.4645 16.9324 16.4762 16.9508C16.6116 17.1639 16.7618 17.3442 16.9484 17.5142C17.1282 17.6777 17.3232 17.8241 17.492 17.9995L17.5119 18.0204C17.6693 18.1861 17.8352 18.3868 17.7736 18.6279C17.7578 18.6898 17.6712 18.7344 17.6147 18.6925C17.433 18.5577 17.3415 18.3442 17.1874 18.1807C17.0287 18.0122 16.853 17.8608 16.6939 17.6928C16.5434 17.5343 16.4247 17.3546 16.3352 17.1569C16.2995 17.1963 16.2475 17.2243 16.1753 17.2352C16.0514 17.2538 15.9359 17.1812 15.8818 17.0739C15.8471 17.0893 15.8117 17.1032 15.776 17.1141C15.5881 17.1715 15.4699 16.9627 15.5408 16.8083C15.5787 16.7256 15.626 16.6537 15.6848 16.5933C15.5011 16.568 15.3142 16.4731 15.1935 16.3547C14.8906 16.0571 14.849 15.6099 14.9171 15.2123C14.9533 15.0014 15.0157 14.7881 15.0968 14.5901C15.1109 14.5557 15.1261 14.521 15.1427 14.4868C15.1335 14.4866 15.1241 14.4826 15.1181 14.4749C15.0633 14.4001 14.9967 14.3389 14.956 14.2552C14.9186 14.1784 14.877 14.1006 14.8474 14.0205C14.7867 13.8568 14.757 13.6719 14.7372 13.4988C14.6963 13.1442 14.7121 12.7919 14.7664 12.4396C14.8588 11.8395 15.0821 11.2653 15.4111 10.7614C15.3932 10.752 15.376 10.7406 15.36 10.7272L15.3521 10.7203L15.3393 10.7087C15.2454 10.6238 15.2535 10.4647 15.3393 10.3787L15.3664 10.3515C15.4007 10.3175 15.4302 10.2905 15.4856 10.2534C15.4938 10.2479 15.5022 10.2428 15.5106 10.238C15.4816 10.1844 15.4716 10.1218 15.4918 10.0527C15.5622 9.81195 15.9087 9.82047 16.1283 9.92544C16.3713 9.70868 16.6408 9.52051 16.9328 9.36814C17.6284 9.00542 18.4148 8.75246 19.1828 8.59785ZM15.5874 14.938C15.7173 14.8956 15.8898 14.9846 16.0065 15.0381C16.1545 15.106 16.2804 15.2063 16.4024 15.3124C16.4631 15.3654 16.474 15.4521 16.4589 15.5262C16.4574 15.5336 16.4559 15.5413 16.4542 15.549C16.4381 15.628 16.3498 15.6902 16.2717 15.688C16.1084 15.6835 16.0306 15.5425 15.9381 15.4231C15.9272 15.4424 15.9136 15.4603 15.8967 15.4736L15.8853 15.4826C15.8469 15.5118 15.8046 15.5351 15.7539 15.5329C15.718 15.5311 15.6836 15.522 15.6518 15.5054C15.5725 15.4635 15.5376 15.3609 15.5591 15.2774C15.5725 15.2249 15.6032 15.1838 15.6434 15.1553L15.6284 15.145C15.5964 15.1228 15.5672 15.0993 15.5444 15.0646L15.5393 15.0564H15.5412C15.5165 15.0138 15.5326 14.9558 15.5874 14.938Z" fill="black"/>
<path fill-rule="evenodd" clip-rule="evenodd" d="M21.635 17.456C21.4524 17.5089 21.2564 17.5136 21.0703 17.459C20.9015 17.4095 20.7282 17.3005 20.6039 17.1563C20.4935 17.0282 20.422 16.8725 20.4248 16.7063C20.4252 16.6874 20.432 16.6715 20.4424 16.6592C20.4536 16.646 20.4693 16.6369 20.4862 16.6329C20.5035 16.6289 20.5218 16.6303 20.5373 16.6374C20.5514 16.6438 20.5635 16.6547 20.5711 16.6706C20.5902 16.6956 20.6092 16.7203 20.6283 16.7443C20.7818 16.9338 20.9305 17.0755 21.1614 17.1262C21.2866 17.1538 21.4117 17.1416 21.5265 17.0995C21.6494 17.0545 21.7605 16.9754 21.8475 16.8741C21.8868 16.8283 21.9333 16.8096 21.9787 16.8093C22.0301 16.8089 22.081 16.8328 22.1193 16.871C22.157 16.9086 22.1822 16.9596 22.1845 17.013C22.1865 17.0598 22.1712 17.1088 22.1305 17.1524C21.9966 17.2963 21.8229 17.4016 21.635 17.456ZM21.6294 15.0827C21.8166 15.1964 22.1018 15.4616 21.9004 15.7435C21.6634 15.9921 21.3221 15.7071 21.154 15.5782C20.9981 15.4783 20.8229 15.7352 20.9675 15.8519C22.1827 16.7511 22.6758 15.1124 21.7241 14.949C21.6193 14.931 21.5804 15.0475 21.6294 15.0827ZM19.8784 14.5823C19.8183 14.5438 19.7475 14.5306 19.6691 14.5663C19.6078 14.5941 19.5003 14.687 19.4255 14.8091C19.3743 14.8926 19.338 14.9906 19.3456 15.0927C19.3473 15.1164 19.3386 15.1339 19.3247 15.1468C19.3138 15.157 19.2981 15.1645 19.2795 15.1668C19.2638 15.1688 19.2462 15.167 19.2319 15.1626C19.2047 15.1541 19.1903 15.1364 19.1848 15.122C19.1325 14.983 19.155 14.8278 19.2137 14.6878C19.293 14.4989 19.4368 14.3407 19.5311 14.2896C19.6924 14.2023 19.8827 14.1983 20.0442 14.2873C20.1818 14.363 20.2677 14.4852 20.3532 14.6099C20.3714 14.6364 20.3895 14.6626 20.4081 14.6885C20.4455 14.7403 20.4492 14.7916 20.4347 14.8356C20.4187 14.8844 20.3778 14.9256 20.3267 14.9471C20.2795 14.967 20.2246 14.9698 20.1761 14.9494C20.1351 14.9321 20.0975 14.8984 20.0737 14.8412C20.0336 14.745 19.9668 14.6388 19.8784 14.5823V14.5823ZM22.9339 14.7964C22.8927 14.8179 22.8604 14.8244 22.8147 14.8107C22.7895 14.8031 22.7645 14.7886 22.7449 14.769C22.7255 14.7496 22.7116 14.7255 22.7061 14.6988C22.6928 14.6329 22.6566 14.5711 22.6052 14.5309C22.5612 14.4965 22.5057 14.4782 22.4441 14.4885C22.3777 14.4996 22.3144 14.5422 22.2708 14.5924C22.2562 14.6092 22.2448 14.6283 22.2333 14.6472C22.2118 14.6827 22.191 14.7156 22.1613 14.7417C22.1501 14.7516 22.1332 14.7584 22.1168 14.7584C22.1101 14.7584 22.1034 14.7573 22.0969 14.7553C22.0308 14.689 22.0181 14.6387 22.0202 14.5888C22.0224 14.5364 22.0431 14.4834 22.0765 14.434C22.1547 14.318 22.3033 14.2228 22.4036 14.2013C22.541 14.1718 22.6773 14.2072 22.7867 14.2839C22.8992 14.3628 22.9826 14.4853 23.0086 14.6233C23.0148 14.6565 23.0122 14.6924 22.9995 14.7235C22.9871 14.7539 22.9656 14.78 22.9339 14.7964ZM20.1813 13.3455C20.0989 13.4258 20.0014 13.4382 19.9027 13.4493C19.8478 13.4555 19.8041 13.4605 19.761 13.4702C19.6426 13.4969 19.5256 13.5371 19.4188 13.5951C19.3072 13.6557 19.1856 13.7287 19.0981 13.8223C19.0773 13.8446 19.0576 13.8679 19.038 13.8913C19.0201 13.9127 19.0028 13.9332 18.9847 13.9531C18.9638 13.9758 18.9439 13.9997 18.9242 14.0235C18.912 14.0436 18.9096 14.0485 18.9072 14.0537C18.9035 14.0614 18.8992 14.07 18.8943 14.0793C18.8875 14.092 18.8797 14.1059 18.8714 14.1185C18.8577 14.1416 18.8503 14.1479 18.8439 14.1508C18.8334 14.1555 18.8234 14.1578 18.8137 14.1565C18.8045 14.1553 18.796 14.151 18.7875 14.1438C18.7452 14.1081 18.7327 14.0494 18.734 13.9872C18.7359 13.8927 18.7708 13.7881 18.8029 13.7238C18.8776 13.5744 18.9812 13.4191 19.1059 13.3077C19.248 13.1804 19.4036 13.084 19.5823 13.0176C19.6933 12.9764 19.8218 12.9385 19.9428 12.9433C20.0299 12.9467 20.113 12.9726 20.1816 13.0372C20.2238 13.0768 20.244 13.1332 20.244 13.1896C20.244 13.2471 20.223 13.3049 20.1813 13.3455ZM23.1015 14.0805C23.0963 14.0891 23.089 14.095 23.0809 14.0986C23.0725 14.1023 23.063 14.1034 23.054 14.1018C23.0449 14.1003 23.0363 14.0962 23.0295 14.09C23.023 14.084 23.0181 14.076 23.0158 14.0663C22.9611 13.8261 22.8549 13.6474 22.6281 13.5321C22.5165 13.4754 22.3883 13.4394 22.2668 13.4107C22.2315 13.4023 22.1942 13.3969 22.1567 13.3914C22.039 13.3743 21.9205 13.3546 21.8438 13.2595C21.7975 13.2022 21.7781 13.129 21.7891 13.062C21.7994 12.9989 21.8363 12.9411 21.9033 12.9064C22.0702 12.8202 22.2776 12.9048 22.4461 12.9769C22.4586 12.9823 22.4709 12.9875 22.4829 12.9926C22.6477 13.0621 22.798 13.1539 22.9216 13.2851C23.0196 13.3893 23.1104 13.5432 23.147 13.7016C23.1774 13.8333 23.1703 13.9678 23.1015 14.0805Z" fill="black"/>
<path fill-rule="evenodd" clip-rule="evenodd" d="M19.4664 17.5808C19.6671 17.1108 20.1051 16.7655 20.6094 16.6392C20.9797 16.5467 21.3684 16.5497 21.7459 16.5864C21.9437 16.6055 22.1558 16.6211 22.3422 16.6945C22.5014 16.7573 22.6311 16.8758 22.7286 17.015C22.8447 17.1799 22.9237 17.3686 22.9792 17.5621C22.987 17.5896 22.9944 17.6173 23.0013 17.6452C22.9772 17.7911 22.926 17.9154 22.7908 18.0071C22.6588 18.0967 22.5013 18.1334 22.3443 18.1464C22.3289 18.139 22.314 18.1314 22.3004 18.1237C22.0557 17.9837 21.8836 17.6529 21.5748 17.6976C21.2992 17.7376 21.1178 18.0842 20.9539 18.2874C20.4279 18.3487 19.9023 18.1907 19.4742 17.89C19.4525 17.7871 19.4513 17.6833 19.4664 17.5808M23.3589 17.2243C23.3168 17.1063 23.2638 16.9919 23.201 16.8843C22.9933 16.5281 22.6744 16.2444 22.2959 16.0821C21.4006 15.6989 20.2421 15.9691 19.519 16.5975C19.272 16.8124 19.0222 17.1281 18.9467 17.4677C18.9242 17.4721 18.9029 17.4839 18.8853 17.5004C18.3629 17.1716 17.8249 16.8553 17.404 16.3996C17.0982 16.0685 16.8856 15.6767 16.7554 15.2461C16.7447 15.2106 16.6876 15.2158 16.6893 15.255C16.6898 15.2642 16.6903 15.2733 16.6908 15.2825C16.6853 15.2657 16.6596 15.2743 16.6576 15.2907C16.5876 15.8138 16.4999 16.3684 16.5806 16.8942C16.6289 17.2079 16.7715 17.4376 16.9621 17.6856C17.1663 17.9515 17.3975 18.1988 17.6339 18.4359C17.7839 18.5864 17.9406 18.7601 18.1243 18.8704C18.3379 18.9987 18.5803 19.0962 18.8083 19.1951C19.0402 19.296 19.2756 19.3893 19.5155 19.4701C19.995 19.6324 20.4906 19.7445 20.9948 19.7936C21.3986 19.8328 21.86 19.8754 22.2469 19.7236C22.5435 19.6073 22.7829 19.397 22.9727 19.144C23.1794 18.8684 23.3428 18.5546 23.4332 18.2236C23.527 17.8798 23.3787 17.2797 23.3589 17.2243" fill="black"/>
</g>
<defs>
<clipPath id="clip0_202_30">
<rect width="36" height="36" fill="white"/>
</clipPath>
</defs>
</svg>
